HIERARCHY
ROOT hip
{
  OFFSET 0.0 0.0 0.0
  CHANNELS 6 Xposition Yposition Zposition Zrotation Yrotation Xrotation
  JOINT abdomen
  {
    OFFSET 0.0 20.6881 -0.73152
    CHANNELS 3 Zrotation Xrotation Yrotation
    JOINT chest
    {
      OFFSET 0.0 11.7043 -0.48768
      CHANNELS 3 Zrotation Xrotation Yrotation
      JOINT neck
      {
        OFFSET 0.0 22.1894 -2.19456
        CHANNELS 3 Zrotation Xrotation Yrotation
        JOINT head
        {
          OFFSET -0.24384 7.07133 1.2192
          CHANNELS 3 Zrotation Xrotation Yrotation
          JOINT leftEye
          {
            OFFSET 4.14528 8.04674 8.04672
            CHANNELS 3 Zrotation Xrotation Yrotation
            End Site
            {
              OFFSET 1.0 0.0 0.0
            }
          }
          JOINT rightEye
          {
            OFFSET -3.6576 8.04674 8.04672
            CHANNELS 3 Zrotation Xrotation Yrotation
            End Site
            {
              OFFSET 1.0 0.0 0.0
            }
          }
        }
      }
      JOINT rCollar
      {
        OFFSET -2.68224 19.2634 -4.8768
        CHANNELS 3 Zrotation Xrotation Yrotation
        JOINT rShldr
        {
          OFFSET -8.77824 -1.95073 1.46304
          CHANNELS 3 Zrotation Xrotation Yrotation
          JOINT rForeArm
          {
            OFFSET -28.1742 -1.7115 0.48768
            CHANNELS 3 Zrotation Xrotation Yrotation
            JOINT rHand
            {
              OFFSET -22.5879 0.773209 7.07136
              CHANNELS 3 Zrotation Xrotation Yrotation
              JOINT rThumb1
              {
                OFFSET -1.2192 -0.487915 3.41376
                CHANNELS 3 Zrotation Xrotation Yrotation
                JOINT rThumb2
                {
                  OFFSET -3.37035 -0.52449 3.41376
                  CHANNELS 3 Zrotation Xrotation Yrotation
                  End Site
                  {
                    OFFSET -1.78271 -1.18214 1.43049
                  }
                }
              }
              JOINT rIndex1
              {
                OFFSET -7.75947 0.938293 5.60832
                CHANNELS 3 Zrotation Xrotation Yrotation
                JOINT rIndex2
                {
                  OFFSET -2.54057 -0.884171 1.56538
                  CHANNELS 3 Zrotation Xrotation Yrotation
                  End Site
                  {
                    OFFSET -1.62519 -0.234802 1.16502
                  }
                }
              }
              JOINT rMid1
              {
                OFFSET -8.24714 1.18213 3.41376
                CHANNELS 3 Zrotation Xrotation Yrotation
                JOINT rMid2
                {
                  OFFSET -3.10165 -0.590103 1.0647
                  CHANNELS 3 Zrotation Xrotation Yrotation
                  End Site
                  {
                    OFFSET -2.48547 -0.328903 0.83742
                  }
                }
              }
              JOINT rRing1
              {
                OFFSET -8.82822 0.546677 1.51678
                CHANNELS 3 Zrotation Xrotation Yrotation
                JOINT rRing2
                {
                  OFFSET -2.60934 -0.819778 -0.0198488
                  CHANNELS 3 Zrotation Xrotation Yrotation
                  End Site
                  {
                    OFFSET -2.33842 -0.294052 0.168128
                  }
                }
              }
              JOINT rPinky1
              {
                OFFSET -8.27202 -0.0477905 -0.4584
                CHANNELS 3 Zrotation Xrotation Yrotation
                JOINT rPinky2
                {
                  OFFSET -1.82734 -0.647385 -0.700984
                  CHANNELS 3 Zrotation Xrotation Yrotation
                  End Site
                  {
                    OFFSET -1.69225 -0.51767 -0.607171
                  }
                }
              }
            }
          }
        }
      }
      JOINT lCollar
      {
        OFFSET 2.68224 19.2634 -4.8768
        CHANNELS 3 Zrotation Xrotation Yrotation
        JOINT lShldr
        {
          OFFSET 8.77824 -1.95073 1.46304
          CHANNELS 3 Zrotation Xrotation Yrotation
          JOINT lForeArm
          {
            OFFSET 28.1742 -1.7115 0.48768
            CHANNELS 3 Zrotation Xrotation Yrotation
            JOINT lHand
            {
              OFFSET 22.5879 0.773209 7.07136
              CHANNELS 3 Zrotation Xrotation Yrotation
              JOINT lThumb1
              {
                OFFSET 1.2192 -0.487915 3.41376
                CHANNELS 3 Zrotation Xrotation Yrotation
                JOINT lThumb2
                {
                  OFFSET 3.37035 -0.52449 3.41376
                  CHANNELS 3 Zrotation Xrotation Yrotation
                  End Site
                  {
                    OFFSET 1.78271 -1.18214 1.43049
                  }
                }
              }
              JOINT lIndex1
              {
                OFFSET 7.75947 0.938293 5.60832
                CHANNELS 3 Zrotation Xrotation Yrotation
                JOINT lIndex2
                {
                  OFFSET 2.54057 -0.884171 1.56538
                  CHANNELS 3 Zrotation Xrotation Yrotation
                  End Site
                  {
                    OFFSET 1.62519 -0.234802 1.16502
                  }
                }
              }
              JOINT lMid1
              {
                OFFSET 8.24714 1.18213 3.41376
                CHANNELS 3 Zrotation Xrotation Yrotation
                JOINT lMid2
                {
                  OFFSET 3.10165 -0.590103 1.0647
                  CHANNELS 3 Zrotation Xrotation Yrotation
                  End Site
                  {
                    OFFSET 2.48547 -0.328903 0.83742
                  }
                }
              }
              JOINT lRing1
              {
                OFFSET 8.82822 0.546677 1.51678
                CHANNELS 3 Zrotation Xrotation Yrotation
                JOINT lRing2
                {
                  OFFSET 2.60934 -0.819778 -0.0198488
                  CHANNELS 3 Zrotation Xrotation Yrotation
                  End Site
                  {
                    OFFSET 2.33842 -0.294052 0.168128
                  }
                }
              }
              JOINT lPinky1
              {
                OFFSET 8.27202 -0.0477905 -0.4584
                CHANNELS 3 Zrotation Xrotation Yrotation
                JOINT lPinky2
                {
                  OFFSET 1.82734 -0.647385 -0.700984
                  CHANNELS 3 Zrotation Xrotation Yrotation
                  End Site
                  {
                    OFFSET 1.69225 -0.51767 -0.607171
                  }
                }
              }
            }
          }
        }
      }
    }
  }
  JOINT rButtock
  {
    OFFSET -8.77824 4.35084 1.2192
    CHANNELS 3 Zrotation Xrotation Yrotation
    JOINT rThigh
    {
      OFFSET 0.0 -1.70687 -2.19456
      CHANNELS 3 Zrotation Xrotation Yrotation
      JOINT rShin
      {
        OFFSET 0.0 -36.8199 0.73152
        CHANNELS 3 Zrotation Xrotation Yrotation
        JOINT rFoot
        {
          OFFSET 0.73152 -45.1104 -5.12064
          CHANNELS 3 Zrotation Xrotation Yrotation
          End Site
          {
            OFFSET -1.1221 -3.69964 12.103
          }
        }
      }
    }
  }
  JOINT lButtock
  {
    OFFSET 8.77824 4.35084 1.2192
    CHANNELS 3 Zrotation Xrotation Yrotation
    JOINT lThigh
    {
      OFFSET 0.0 -1.70687 -2.19456
      CHANNELS 3 Zrotation Xrotation Yrotation
      JOINT lShin
      {
        OFFSET 0.0 -36.8199 0.73152
        CHANNELS 3 Zrotation Xrotation Yrotation
        JOINT lFoot
        {
          OFFSET -0.73152 -45.1104 -5.12064
          CHANNELS 3 Zrotation Xrotation Yrotation
          End Site
          {
            OFFSET 1.1221 -3.69964 12.103
          }
        }
      }
    }
  }
}
MOTION
Frames: 4
Frame Time: 0.00833333
44.57500000000002 83.6778 -9.579286 164.402 86.2527 162.982 -4.61621 10.597 0.826378 1.77184 0.804201 0.169998 7.86221 6.12818 4.48975 -4.84443 -12.7374 7.09475 -0.0 0.0 0.0 -0.0 0.0 0.0 -3.99137e-14 -9.67887e-13 -1.83126e-14 82.3369 34.0518 -4.63393 -15.3228 -8.07278 28.2561 -0.387127 -17.4186 -2.52715 9.69622e-10 7.39634e-13 -1.02634e-09 1.68572e-09 -6.71295e-13 -1.76202e-09 9.69635e-10 7.34368e-13 -1.02634e-09 7.73091 5.47488 0.417314 9.69627e-10 7.29556e-13 -1.02634e-09 2.90554 0.965183 0.102902 9.6963e-10 7.2907e-13 -1.02633e-09 10.2786 0.731801 0.0259123 9.69614e-10 7.30241e-13 -1.02632e-09 2.22167 -0.733487 -0.20892 -3.9963e-14 -9.67892e-13 -1.85429e-14 -65.2164 48.6262 -20.0655 17.7871 -10.4659 -33.5247 0.155596 -11.3747 1.61834 2.87822e-10 -2.71641e-10 5.47842e-10 4.97576e-10 -4.69826e-10 9.51274e-10 2.87815e-10 -2.71639e-10 5.47857e-10 -7.73091 5.47488 -0.417314 2.87822e-10 -2.71639e-10 5.47843e-10 -2.90554 0.965183 -0.102902 2.87814e-10 -2.71637e-10 5.47842e-10 -10.2786 0.731801 -0.0259123 2.87822e-10 -2.71636e-10 5.47835e-10 -2.22167 -0.733487 0.20892 -2.03217e-16 0.0 -3.88251e-19 8.37573 -28.0852 12.4462 -0.238769 35.5835 0.743239 -8.71683 -16.0863 -22.5003 2.03217e-16 0.0 3.88251e-19 -4.13734 19.8757 -9.04698 0.00358901 14.9726 -0.465229 0.897888 -5.61158 3.43443
45.962999999999994 83.6588 -9.244717 172.46 85.9836 171.227 -3.88541 10.4648 0.543652 1.78674 0.845419 0.129465 7.76809 6.16339 4.44062 -4.80814 -12.766 7.02201 -0.0 0.0 0.0 -0.0 0.0 0.0 -4.49042e-14 -1.06166e-12 -2.05742e-14 82.3612 34.1645 -4.80552 -15.4359 -8.17355 28.4907 -0.400951 -17.7132 -2.57275 1.20651e-09 2.26169e-11 -1.79611e-09 2.10226e-09 3.83448e-11 -3.09044e-09 1.20652e-09 2.26098e-11 -1.79612e-09 7.73091 5.47488 0.417314 1.20651e-09 2.26053e-11 -1.79612e-09 2.90554 0.965183 0.102902 1.20651e-09 2.26049e-11 -1.79611e-09 10.2786 0.731801 0.0259123 1.2065e-09 2.26058e-11 -1.79609e-09 2.22167 -0.733487 -0.20892 -4.49494e-14 -1.06166e-12 -2.08227e-14 -66.055 48.1753 -19.1852 17.2668 -9.91944 -32.3952 0.100954 -9.02515 1.2791 1.21901e-10 -5.92639e-10 5.85887e-10 2.13542e-10 -1.02387e-09 1.01407e-09 1.21893e-10 -5.92639e-10 5.85899e-10 -7.73091 5.47488 -0.417314 1.21901e-10 -5.92638e-10 5.85887e-10 -2.90554 0.965183 -0.102902 1.21893e-10 -5.92636e-10 5.85887e-10 -10.2786 0.731801 -0.0259123 1.21901e-10 -5.92635e-10 5.8588e-10 -2.22167 -0.733487 0.20892 -2.03217e-16 0.0 -3.88251e-19 8.93834 -27.347 12.2347 -0.24461 35.6847 0.678813 -8.87113 -16.4793 -22.5963 2.03217e-16 0.0 3.88251e-19 -3.52379 17.1445 -8.51044 0.0443556 20.0896 -0.483751 0.601814 -3.56899 1.89411
47.268 83.6111 -8.968372 181.387 85.346 180.136 -2.68321 10.4212 0.33122 1.67185 0.829827 0.134309 7.68557 6.22258 4.36365 -4.78366 -12.842 6.89105 -0.0 0.0 0.0 -0.0 0.0 0.0 -3.60984e-14 -9.37113e-13 -1.40314e-14 82.4568 34.2887 -5.02417 -15.5725 -8.29698 28.7734 -0.415949 -18.0307 -2.62203 7.80978e-10 9.38861e-11 -1.44637e-09 1.36324e-09 1.62796e-10 -2.49147e-09 7.80989e-10 9.38796e-11 -1.44637e-09 7.73091 5.47488 0.417314 7.80981e-10 9.3876e-11 -1.44637e-09 2.90554 0.965183 0.102902 7.80987e-10 9.38758e-11 -1.44637e-09 10.2786 0.731801 0.0259123 7.8097e-10 9.3877e-11 -1.44636e-09 2.22167 -0.733487 -0.20892 -3.61443e-14 -9.37117e-13 -1.43148e-14 -66.7426 47.8287 -18.3677 16.7574 -9.4125 -31.2862 0.0551617 -6.75442 0.954653 2.27767e-10 -5.54992e-10 2.99293e-10 3.96251e-10 -9.58701e-10 5.17326e-10 2.2776e-10 -5.54992e-10 2.99303e-10 -7.73091 5.47488 -0.417314 2.27767e-10 -5.54992e-10 2.9929e-10 -2.90554 0.965183 -0.102902 2.2776e-10 -5.5499e-10 2.99291e-10 -10.2786 0.731801 -0.0259123 2.27769e-10 -5.54989e-10 2.99283e-10 -2.22167 -0.733487 0.20892 -2.03217e-16 0.0 -3.88251e-19 9.72105 -26.5904 11.7434 -0.250742 35.6701 0.578524 -8.8886 -16.7984 -22.511 2.03217e-16 0.0 3.88251e-19 -2.44878 13.7618 -7.69949 0.113765 26.0024 -0.522263 0.28064 -0.797878 -0.201936
48.644000000000005 83.4845 -8.6193 191.04 85.592 190.063 -1.16423 10.4326 0.155241 1.47941 0.774625 0.168098 7.61015 6.30514 4.26381 -4.76795 -12.9472 6.71422 -0.0 0.0 0.0 -0.0 0.0 0.0 -1.76774e-14 -6.50295e-13 -1.2424e-15 82.6135 34.4302 -5.29564 -15.7338 -8.44366 29.1094 -0.433231 -18.3873 -2.67759 -6.29655e-11 1.99122e-10 -4.53358e-10 -1.05085e-10 3.46209e-10 -7.85544e-10 -6.29585e-11 1.99118e-10 -4.53359e-10 7.73091 5.47488 0.417314 -6.29658e-11 1.99115e-10 -4.53358e-10 2.90554 0.965183 0.102902 -6.29563e-11 1.99116e-10 -4.53357e-10 10.2786 0.731801 0.0259123 -6.29735e-11 1.99117e-10 -4.53351e-10 2.22167 -0.733487 -0.20892 -1.77261e-14 -6.50299e-13 -1.57164e-15 -67.3606 47.5391 -17.5451 16.2365 -8.91608 -30.1594 0.0193012 -4.50129 0.63452 4.7634e-10 -3.21164e-10 -2.05418e-10 8.24077e-10 -5.54728e-10 -3.56036e-10 4.76335e-10 -3.21166e-10 -2.05412e-10 -7.73091 5.47488 -0.417314 4.7634e-10 -3.21166e-10 -2.05425e-10 -2.90554 0.965183 -0.102902 4.76334e-10 -3.21165e-10 -2.05424e-10 -10.2786 0.731801 -0.0259123 4.76344e-10 -3.21163e-10 -2.05435e-10 -2.22167 -0.733487 0.20892 -2.03217e-16 0.0 -3.88251e-19 10.6688 -25.7945 11.0974 -0.257599 35.5539 0.45136 -8.87019 -17.1626 -22.3643 2.03217e-16 0.0 3.88251e-19 -0.984408 9.72771 -6.73316 0.215522 32.7476 -0.585102 0.115307 2.49468 -2.71779
